<svg width="132" height="36" viewBox="0 0 132 36" fill="none" xmlns="http://www.w3.org/2000/svg">
<g clip-path="url(#clip0_2101_1443)">
<path d="M0.5 15V18H15.5L18.5 15V0H15.5C14.623 7.89258 8.39258 14.123 0.5 15Z" fill="#1D2023"/>
<path d="M36.5 21V18H21.5L18.5 21V36H21.5C22.377 28.1074 28.6074 21.877 36.5 21Z" fill="#1D2023"/>
<path d="M73.4878 15.9705C73.5896 16.6277 73.6235 17.3235 73.6235 18.0193C73.6235 25.5961 67.7867 31.7812 60.5585 31.7812C53.3642 31.7812 47.5273 25.5961 47.5273 18.0193C47.5273 10.4039 53.3642 4.21875 60.5585 4.21875C64.2235 4.21875 67.5152 5.80369 69.8906 8.35506L67.1419 11.2157C65.4791 9.3988 63.1375 8.27774 60.5585 8.27774C55.5361 8.27774 51.4299 12.646 51.4299 18.0193C51.4299 23.354 55.5361 27.7609 60.5585 27.7609C64.97 27.7609 68.635 24.4364 69.5174 20.0295H60.7281L64.6307 15.9705H73.4878Z" fill="#1D2023"/>
<path d="M91.1487 11.9502H95.0512V31.2787H91.1487V28.6114C90.4021 29.5005 89.4858 30.235 88.4678 30.7762C87.3479 31.356 86.0923 31.6653 84.8028 31.7039C83.5472 31.7426 82.2576 31.472 81.0699 30.9695C79.8822 30.4669 78.8302 29.6938 77.9479 28.7273C76.2172 26.8331 75.2331 24.2045 75.267 21.6144C75.2331 19.0244 76.2172 16.3957 77.9479 14.5015C78.8302 13.5738 79.8822 12.8006 81.0699 12.2594C82.2576 11.7569 83.5472 11.5249 84.8028 11.5249C86.0923 11.5636 87.3479 11.8729 88.4678 12.4527C89.4858 12.9939 90.4021 13.767 91.1487 14.6175V11.9502ZM89.0786 26.176C90.3342 25.0936 91.1487 23.3927 91.1487 21.6144C91.1487 19.8362 90.3342 18.1353 89.0786 17.0916C88.4678 16.5504 87.7551 16.1251 87.0425 15.8932C86.2959 15.6612 85.5494 15.5453 84.8028 15.5839C83.3096 15.6612 81.8844 16.2798 80.8324 17.4008C79.7804 18.4832 79.1695 20.0295 79.1695 21.6144C79.1695 23.1994 79.7804 24.7457 80.8324 25.8281C81.8844 26.9491 83.3096 27.5676 84.8028 27.6449C85.5494 27.6836 86.2959 27.5676 87.0425 27.3357C87.7551 27.1037 88.4678 26.7172 89.0786 26.176Z" fill="#1D2023"/>
<path d="M109.882 16.1638H105.063V24.0498C105.063 26.4852 105.403 26.9491 105.776 27.1811C106.489 27.7223 108.423 27.5676 109.882 27.3743V31.472C109.136 31.5493 108.389 31.6266 107.643 31.6266C106.081 31.6266 104.622 31.356 103.502 30.5056C101.432 28.9593 101.127 26.4852 101.127 24.0498V16.1638H97.3262V12.1048H101.127V7.73655L105.063 5.41712V12.1048H109.882V16.1638Z" fill="#1D2023"/>
<path d="M127.371 11.9502H131.273V31.2787H127.371V28.6114C126.624 29.5005 125.708 30.235 124.69 30.7762C123.57 31.356 122.314 31.6653 121.025 31.7039C119.769 31.7426 118.479 31.472 117.292 30.9695C116.104 30.4669 115.052 29.6938 114.17 28.7273C112.439 26.8331 111.455 24.2045 111.489 21.6144C111.455 19.0244 112.439 16.3957 114.17 14.5015C115.052 13.5738 116.104 12.8006 117.292 12.2594C118.479 11.7569 119.769 11.5249 121.025 11.5249C122.314 11.5636 123.57 11.8729 124.69 12.4527C125.708 12.9939 126.624 13.767 127.371 14.6175V11.9502ZM125.3 26.176C126.556 25.0936 127.371 23.3927 127.371 21.6144C127.371 19.8362 126.556 18.1353 125.3 17.0916C124.69 16.5504 123.977 16.1251 123.264 15.8932C122.518 15.6612 121.771 15.5453 121.025 15.5839C119.531 15.6612 118.106 16.2798 117.054 17.4008C116.002 18.4832 115.391 20.0295 115.391 21.6144C115.391 23.1994 116.002 24.7457 117.054 25.8281C118.106 26.9491 119.531 27.5676 121.025 27.6449C121.771 27.6836 122.518 27.5676 123.264 27.3357C123.977 27.1037 124.69 26.7172 125.3 26.176Z" fill="#1D2023"/>
</g>
<defs>
<clipPath id="clip0_2101_1443">
<rect width="131.4" height="36" fill="white"/>
</clipPath>
</defs>
</svg>
