<svg width="24" height="24" viewBox="0 0 24 24" fill="none" xmlns="http://www.w3.org/2000/svg">
<path d="M20.375 12C20.375 12.2984 20.2565 12.5845 20.0455 12.7955C19.8345 13.0065 19.5484 13.125 19.25 13.125H4.75C4.45163 13.125 4.16548 13.0065 3.9545 12.7955C3.74353 12.5845 3.625 12.2984 3.625 12C3.625 11.7016 3.74353 11.4155 3.9545 11.2045C4.16548 10.9935 4.45163 10.875 4.75 10.875H19.25C19.5484 10.875 19.8345 10.9935 20.0455 11.2045C20.2565 11.4155 20.375 11.7016 20.375 12ZM4.75 7.125H19.25C19.5484 7.125 19.8345 7.00647 20.0455 6.7955C20.2565 6.58452 20.375 6.29837 20.375 6C20.375 5.70163 20.2565 5.41548 20.0455 5.2045C19.8345 4.99353 19.5484 4.875 19.25 4.875H4.75C4.45163 4.875 4.16548 4.99353 3.9545 5.2045C3.74353 5.41548 3.625 5.70163 3.625 6C3.625 6.29837 3.74353 6.58452 3.9545 6.7955C4.16548 7.00647 4.45163 7.125 4.75 7.125ZM19.25 16.875H4.75C4.45163 16.875 4.16548 16.9935 3.9545 17.2045C3.74353 17.4155 3.625 17.7016 3.625 18C3.625 18.2984 3.74353 18.5845 3.9545 18.7955C4.16548 19.0065 4.45163 19.125 4.75 19.125H19.25C19.5484 19.125 19.8345 19.0065 20.0455 18.7955C20.2565 18.5845 20.375 18.2984 20.375 18C20.375 17.7016 20.2565 17.4155 20.0455 17.2045C19.8345 16.9935 19.5484 16.875 19.25 16.875Z" fill="#1D2023"/>
</svg>
